<?xml version="1.0" encoding="UTF-8"?>
<svg width="104px" height="75px" viewBox="0 0 104 75" version="1.1" xmlns="http://www.w3.org/2000/svg" xmlns:xlink="http://www.w3.org/1999/xlink">
    <!-- Generator: sketchtool 54.1 (76490) - https://sketchapp.com -->
    <title>AB398A15-AF46-433A-A014-73C77BBE6E23</title>
    <desc>Created with sketchtool.</desc>
    <defs>
        <filter x="-32.1%" y="-48.2%" width="164.3%" height="196.4%" filterUnits="objectBoundingBox" id="filter-1">
            <feOffset dx="0" dy="4" in="SourceAlpha" result="shadowOffsetOuter1"></feOffset>
            <feGaussianBlur stdDeviation="5" in="shadowOffsetOuter1" result="shadowBlurOuter1"></feGaussianBlur>
            <feColorMatrix values="0 0 0 0 0.901679744   0 0 0 0 0.924040553   0 0 0 0 0.949841486  0 0 0 1 0" type="matrix" in="shadowBlurOuter1" result="shadowMatrixOuter1"></feColorMatrix>
            <feMerge>
                <feMergeNode in="shadowMatrixOuter1"></feMergeNode>
                <feMergeNode in="SourceGraphic"></feMergeNode>
            </feMerge>
        </filter>
        <polygon id="path-2" points="0 0.7809 36.4376 0.7809 36.4376 18.9999 0 18.9999"></polygon>
    </defs>
    <g id="Landing" stroke="none" stroke-width="1" fill="none" fill-rule="evenodd">
        <g transform="translate(-590.000000, -3562.000000)" id="Group-58">
            <g transform="translate(225.000000, 3495.000000)">
                <g id="Group-37" transform="translate(345.000000, 0.375000)">
                    <g id="Group-73" transform="translate(30.000000, 24.625000)">
                        <g id="Acquire" filter="url(#filter-1)" transform="translate(0.000000, 48.000000)">
                            <polygon id="Fill-1" fill="#223949" points="58.4613 -0.0001 56.2503 0.9829 42.4813 0.9829 40.2703 -0.0001 19.8483 0.4859 15.4353 5.2129 15.4353 33.3749 19.7393 37.7489 40.3183 38.5059 42.2283 37.4879 49.5813 37.4229 56.5033 37.4879 58.4123 38.5059 78.9923 37.7489 83.2963 33.3749 83.2963 5.2129 78.8833 0.4859"></polygon>
                            <polygon id="Fill-2" fill="#E2EAF4" points="20.7422 35.4722 17.7462 32.4282 17.7462 6.1242 20.8742 2.7742 39.8062 2.3232 41.9912 3.2942 56.7402 3.2942 58.9252 2.3232 77.8562 2.7742 80.9852 6.1242 80.9852 32.4282 77.9892 35.4722 58.9512 36.1732 57.0922 35.1812 49.6022 35.1112 41.6402 35.1802 39.7802 36.1732"></polygon>
                            <g id="Group-24" transform="translate(0.000000, 2.186100)">
                                <polygon id="Fill-3" fill="#0F1011" points="42.5997 14.0546 35.8687 10.0396 35.8637 10.0296 34.5127 7.5056 22.3127 0.5886 22.3527 0.5176 34.5737 7.4456 34.5787 7.4566 35.9287 9.9816 42.6407 13.9846"></polygon>
                                <polygon id="Fill-5" fill="#0F1011" points="22.7833 33.3959 22.7433 33.3249 34.5123 26.6529 35.8683 24.1179 35.8783 24.1119 42.5993 20.1029 42.6403 20.1729 35.9293 24.1759 34.5733 26.7119 34.5623 26.7179"></polygon>
                                <polygon id="Fill-7" fill="#0F1011" points="56.1319 14.0546 56.0909 13.9846 62.8019 9.9816 64.1589 7.4456 64.1689 7.4396 76.3789 0.5176 76.4189 0.5886 64.2199 7.5056 62.8619 10.0396 62.8539 10.0456"></polygon>
                                <polygon id="Fill-9" fill="#0F1011" points="75.9483 33.3959 64.1593 26.7119 64.1533 26.7009 62.8023 24.1759 56.0913 20.1729 56.1323 20.1029 62.8623 24.1179 62.8683 24.1279 64.2193 26.6529 75.9883 33.3249"></polygon>
                                <path d="M49.4112,11.5278 C46.2472,11.5278 43.6822,14.0928 43.6822,17.2568 C43.6822,20.4208 46.2472,22.9858 49.4112,22.9858 C52.5742,22.9858 55.1402,20.4208 55.1402,17.2568 C55.1402,14.0928 52.5742,11.5278 49.4112,11.5278" id="Fill-11" fill="#E2EAF4"></path>
                                <path d="M49.4102,24.6689 L49.4102,24.5299 C53.4212,24.5299 56.6832,21.2679 56.6832,17.2569 C56.6832,13.2459 53.4212,9.9829 49.4102,9.9829 L49.4102,9.8449 C53.4982,9.8449 56.8222,13.1699 56.8222,17.2569 C56.8222,21.3439 53.4982,24.6689 49.4102,24.6689" id="Fill-13" fill="#081621"></path>
                                <path d="M46.8282,24.2392 C43.8862,23.1892 41.9082,20.3832 41.9082,17.2572 C41.9082,14.0132 44.0752,11.0942 47.1792,10.1592 L47.2182,10.2912 C44.1742,11.2092 42.0472,14.0732 42.0472,17.2572 C42.0472,20.3242 43.9872,23.0782 46.8752,24.1092 L46.8282,24.2392 Z" id="Fill-15" fill="#081621"></path>
                                <path d="M48.3907,14.9872 L51.9117,17.0022 C52.1087,17.1152 52.1087,17.4002 51.9117,17.5132 L48.3937,19.5272 C48.1977,19.6392 47.9537,19.4972 47.9537,19.2712 L47.9497,15.2432 C47.9497,15.0162 48.1947,14.8742 48.3907,14.9872" id="Fill-17" fill="#D10527"></path>
                                <path d="M27.2637,26.1069 C27.2637,21.1119 23.2137,17.0619 18.2187,17.0619 C13.2237,17.0619 9.1737,21.1119 9.1737,26.1069 C9.1737,31.1029 13.2237,35.1519 18.2187,35.1519 C23.2137,35.1519 27.2637,31.1029 27.2637,26.1069" id="Fill-19" fill="#223949"></path>
                                <g id="Group-23" transform="translate(0.000000, 34.000000)">
                                    <mask id="mask-3" fill="white">
                                        <use xlink:href="#path-2"></use>
                                    </mask>
                                    <g id="Clip-22"></g>
                                    <path d="M36.4376,18.9999 C36.4376,8.9379 28.2806,0.7809 18.2186,0.7809 C8.1566,0.7809 -0.0004,8.9379 -0.0004,18.9999" id="Fill-21" fill="#223949" mask="url(#mask-3)"></path>
                                </g>
                            </g>
                        </g>
                    </g>
                </g>
            </g>
        </g>
    </g>
</svg>